<svg id="Layer_2" data-name="Layer 2" xmlns="http://www.w3.org/2000/svg" viewBox="0 0 432 432"><defs><style>.cls-1{fill:#d0d2d3;}.cls-1,.cls-2,.cls-3,.cls-4,.cls-5{stroke:#231f20;stroke-linecap:round;stroke-linejoin:round;stroke-width:2.5px;}.cls-2{fill:#ffb743;}.cls-3{fill:#ffe7d1;}.cls-4{fill:#231f20;}.cls-5{fill:#ef5e89;}</style></defs><title>CHOYCES_Icon_Pencil</title><path class="cls-1" d="M124.7,234h-18a40.32,40.32,0,0,0,0-36h18A40.32,40.32,0,0,1,124.7,234Z"/><path class="cls-2" d="M322.64,234H124.7a40.32,40.32,0,0,0,0-36h198A40.13,40.13,0,0,1,322.64,234Z"/><path class="cls-3" d="M345.52,221.73,322.64,234a40.13,40.13,0,0,0,0-36l22.94,12.26A16.08,16.08,0,0,1,345.52,221.73Z"/><path class="cls-4" d="M345.52,221.73a16.08,16.08,0,0,0,.06-11.47L356.27,216Z"/><path class="cls-5" d="M106.66,234h0a18,18,0,0,1,0-36A40.32,40.32,0,0,1,106.66,234Z"/></svg>